<svg width="18" height="18" viewBox="0 0 18 18" fill="none" xmlns="http://www.w3.org/2000/svg">
<path d="M8.99976 10.9121C10.8191 10.9121 12.4384 11.2727 13.5824 11.8307C14.7631 12.4067 15.2708 13.0979 15.2708 13.6895V15.271H2.72871V13.6895C2.72871 13.0979 3.23642 12.4067 4.41713 11.8307C5.56111 11.2727 7.1804 10.9121 8.99976 10.9121Z" stroke="black" stroke-width="1.1"/>
<path d="M9.0001 2.72896C9.70223 2.72896 10.3756 3.00787 10.8721 3.50435C11.3686 4.00083 11.6475 4.6742 11.6475 5.37632C11.6475 6.07845 11.3686 6.75182 10.8721 7.2483C10.3756 7.74477 9.70223 8.02369 9.0001 8.02369C8.29798 8.02369 7.62461 7.74477 7.12813 7.2483C6.63165 6.75182 6.35273 6.07845 6.35273 5.37632C6.35273 4.6742 6.63165 4.00083 7.12813 3.50435C7.62461 3.00787 8.29798 2.72896 9.0001 2.72896Z" stroke="black" stroke-width="1.1"/>
</svg>
