<svg width="24" height="24" viewBox="0 0 24 24" fill="none" xmlns="http://www.w3.org/2000/svg">
<path d="M9.53273 18.5013C10.7612 18.5091 11.979 18.2728 13.1154 17.8062C14.2519 17.3397 15.2844 16.6521 16.153 15.7835C17.0217 14.9148 17.7093 13.8823 18.1758 12.7458C18.6424 11.6094 18.8786 10.3916 18.8709 9.16315V8.73406C19.5077 8.26751 20.0589 7.69419 20.5 7.03952C19.9004 7.30177 19.2659 7.4757 18.6164 7.55588C19.305 7.14554 19.8217 6.49964 20.0709 5.7377C19.4291 6.12274 18.7253 6.39343 17.9909 6.5377C17.4963 6.01069 16.8418 5.66137 16.1287 5.5438C15.4156 5.42622 14.6836 5.54693 14.046 5.88726C13.4084 6.22759 12.9007 6.76857 12.6015 7.42648C12.3023 8.08439 12.2283 8.82257 12.3909 9.52679C11.0862 9.46275 9.80961 9.12462 8.64426 8.53443C7.47891 7.94424 6.45094 7.11521 5.62727 6.10133C5.21194 6.82219 5.08606 7.67393 5.2751 8.48411C5.46414 9.29429 5.95399 10.0024 6.64545 10.465C6.13535 10.4453 5.63706 10.3058 5.19091 10.0577V10.0941C5.18638 10.8474 5.44016 11.5795 5.90997 12.1684C6.37977 12.7573 7.03722 13.1675 7.77273 13.3304C7.29828 13.458 6.8013 13.4779 6.31818 13.3886C6.53112 14.0311 6.93759 14.5919 7.48185 14.9943C8.02612 15.3966 8.68152 15.6207 9.35818 15.6359C8.20124 16.5672 6.76334 17.0798 5.27818 17.0904C5.01778 17.0829 4.758 17.061 4.5 17.025C6.00324 17.9827 7.75033 18.4877 9.53273 18.4795" fill="black"/>
</svg>
