<?xml version="1.0" encoding="utf-8"?>
<!-- Generator: Adobe Illustrator 25.2.0, SVG Export Plug-In . SVG Version: 6.00 Build 0)  -->
<svg version="1.1" id="レイヤー_1" xmlns="http://www.w3.org/2000/svg" xmlns:xlink="http://www.w3.org/1999/xlink" x="0px"
	 y="0px" viewBox="0 0 130.5 125" style="enable-background:new 0 0 130.5 125;" xml:space="preserve">
<style type="text/css">
	.st0{fill:#FFFFFF;}
</style>
<g>
	<path class="st0" d="M76.1,23.1c0.8,0,1.4-0.2,2.1-0.9c0.9-1,1.6-1.9,2.3-2.3c0.3-0.3,0.5-0.3,0.8-0.3s0.7,0,0.9,0.1
		c1.6,0.7,9,5.2,9,7c0,0.9-0.8,2-3.6,2.9c-1.8,0.7-2.6,0.5-4,2.9c-4.1,6.5-8.6,12.6-13.4,18c-0.3,0.3-0.3,0.9,0,1.2
		C81.4,63.2,99.8,71.9,127,72.2c1.2,0,1.7,0.1,1.7,0.4c0,1.4-16,6.3-19.9,10c-0.8,0.7-1.3,1-2,1c-1.5,0-24.9-7.2-40.5-27.5
		C66,55.7,65.4,55.6,65,56C38.5,82.7,7.4,88.8,2.8,88.8c-0.7,0-1-0.2-1-0.3c0-0.5,1.4-1.3,4.2-2.1c18.8-6,39.6-19.2,55.2-36.8
		c0.2-0.3,0.3-0.7,0.1-1c-3.2-5.4-5.5-11.2-6.7-17.2c-0.2-0.7-1.1-1-1.5-0.4c-23.3,29.1-43,38.3-43.7,38.3C9.1,69.3,9,69.2,9,69
		c0-0.4,0.5-1.2,1.3-1.7c17-13.2,36.6-37,46.5-55.1c1.4-2.6,2.3-5.3,3-8.6C59.9,3,60,2.9,60.2,2.9c0.4,0,12.4,3.9,12.4,7.1
		c0,0.9-1.2,1.8-4,2.3c-1.8,0.3-2.3,0.5-3.9,2.7c-1.6,2.3-3.1,4.5-4.7,6.7c-0.4,0.6,0,1.4,0.7,1.4C60.7,23.1,76.1,23.1,76.1,23.1z
		 M56.6,26.3l-0.3,0.4c1.2,5.8,3.7,12,7.7,17.8c0.3,0.5,1.1,0.5,1.4,0.1c5-6.2,11.2-16.4,11.2-17.7c0-0.4-0.3-0.5-0.9-0.5L56.6,26.3
		L56.6,26.3z"/>
	<path class="st0" d="M55.6,71.1c-0.7,3.4,1.4,8,5.8,8.4s8.6-1.7,10-3.3c1.6-1.9,6-2.1,7.4,0.9c1.3,3,1.2,12.8-7.7,10.7
		c-8-1.9-15.2-2.9-19.1,3.8c-3.6,6.3,4.2,14.5,8.3,15c4.8,0.6,7.2-2.1,13.7-1.2c6.5,1,9.5,5.3,8.3,8c-0.4,1.1-1.6-0.5-3.6,1.1
		c-1.9,1.5-3.6,3.2-4,4.9c-0.4,1.7-4,3.6-8.7,2c-7.4-2.5-22.5-13.6-16.3-29.8c1.7-4.4,5.8-7.3,9.2-8.1c0.7-0.2,1.1-0.6,0.2-1.3
		C57.4,80.8,54.9,77.7,55.6,71.1z"/>
</g>
</svg>
