<?xml version="1.0" encoding="utf-8"?>
<!-- Generator: Adobe Illustrator 25.2.0, SVG Export Plug-In . SVG Version: 6.00 Build 0)  -->
<svg version="1.1" id="レイヤー_1" xmlns="http://www.w3.org/2000/svg" xmlns:xlink="http://www.w3.org/1999/xlink" x="0px"
	 y="0px" viewBox="0 0 130.5 125" style="enable-background:new 0 0 130.5 125;" xml:space="preserve">
<style type="text/css">
	.st0{fill:#FFFFFF;}
</style>
<g>
	<path class="st0" d="M118.7,91.4c-0.3-0.3-0.3-1-0.3-2.1c0-4.2,1.2-12.5,1.2-15.5c0-0.6,0-2.3-1,0.4c-3.5,8.7-6.6,13.5-9.8,13.5
		c-1.4,0-7.3-2.7-12.4-12.3v0c0,0-3.1-7.9-3.1-7.9c-2.5-7.8-3.7-16.5-4.3-24.6c-0.1-0.6,0.4-1.1,1.1-1.1h20.1c2.2,0,2.7-0.6,2.7-1.4
		c0-2.6-8.2-9.5-10.4-9.5c-0.5,0-0.9,0.1-1.2,0.4c-2.1,2-3.3,4.3-4.6,6.4c-0.5,0.7-1.3,1.2-2.2,1.2h-4.7c-0.5,0-1-0.4-1-1
		c-0.3-6.5-0.3-12.2-0.3-16.2c0-3.4,0.1-3.3,2.3-4.2c1.3-0.5,2.1-1.3,2.1-2c0-2.5-11.3-4.9-12.5-4.9c-0.5,0-0.8,0.2-0.8,0.6
		c0,0.3,0,0.4,0.1,0.6c1.3,3.9,1.8,11.5,2,14c0.2,3.1,0.4,7.3,0.7,11.9c0,0.6-0.4,1.1-1,1.1h-4.9l-0.7-0.5c-2.6-1.8-9.5-5-10.8-5
		c-0.1,0-0.3,0.1-0.3,0.4c0,0.1,0,0.4,0.1,0.8c1,4.8,1.3,13.2,1.3,32v11.3c0,0.4-0.3,0.8-0.7,1c-2.3,0.8-3.9,1.3-5.1,1.5
		c-1.4,0.3-2.7-1-3.3-1c-0.4,0-0.5,0.1-0.5,0.4c0,0.5,6.3,7.9,8,7.9c0.8,0,1.3-1.1,2.2-1.6c3-1.7,20.4-13.8,20.4-15.4
		c0-0.1-0.1-0.3-0.4-0.3c-0.4,0-1.2,0.3-2.2,0.8c-3.6,1.7-7.2,3.2-10.4,4.4c-0.7,0.3-1.4-0.3-1.4-1c0-12.6,0.1-23.1,0.1-28.4
		c0.1-3.1,0.3-2.9,1.4-3.7c0.4-0.3,0.8-0.4,1-0.7h6.3c0.5,0,1,0.4,1,0.9c0.9,9.7,2.8,21,6.7,31.2c-0.1,0.1,2.9,6.9,3.1,6.6h0
		c8.9,16.2,21,18.1,22.5,18.1c3.1,0,4.8-1.8,4.8-4.1C119.9,93.5,119.5,92.4,118.7,91.4z"/>
	<path class="st0" d="M126.5,100.3c-0.3,0-0.8,0.1-1.6,0.4c-13.7,4-33.8,6.3-49.6,6.3c-11.5,0-22.6-1.1-32.3-6.7
		c-0.3-0.2-0.5-0.5-0.5-0.9c0-2.6-0.1-6.6-0.1-11.2c0-4.5,0.1-9.6,0.1-14.2c0.4-0.4,0.6-0.6,1-1h14.7c1.7,0,2.1-0.6,2.1-1.4
		c0-2.9-7-8.1-7.9-8.1c-1.4,0-3.9,4.2-4.7,5.5c-0.3,0.6-0.5,1.2-1.2,1.2h-3c-0.4-0.4-0.6-0.6-1-1.1c0-11.5,0.2-12.1,1.8-12.6
		c0.8-0.3,1.4-0.9,1.4-1.6c0-0.3,0-0.4-0.1-0.5h14.1c1.8,0,2.5-0.8,2.5-1.6c0-2.2-4.9-6.7-8.1-7.8c-0.1,0-0.4-0.1-0.7-0.1
		c-0.5,0-0.9,0.1-1.3,0.4c-1,1.2-2.6,2.9-3.9,5c-0.4,0.6-1.2,1-1.6,1h-3c-0.4-0.4-0.6-0.6-1.1-1.1V38l1.1-1.1h12.2
		c1.8,0,2.3-0.8,2.3-1.7c0-0.4-0.1-0.8-0.3-1.1c-1.7-3.3-6.1-6.8-7.9-6.8c-1.6,0-4.2,4.4-4.7,5.4c-0.3,0.6-1.2,1-1.6,1h-1.2
		c0.4-15,0.4-15.9,2.1-16.7c1.7-0.8,2.7-1.9,2.7-2.9c0-3-11.7-4-12.4-4c-0.4,0-0.5,0-0.5,0.4c0,0.1,0,0.3,0.1,0.5
		c1.3,5.1,1.4,15.1,1.4,18.5v3.1c0,0.6-0.5,1.1-1.1,1c-2.6-0.1-7.3-0.3-15.9-1.5h0c0,1.3,2.9,5.6,4.9,5.6h0.1
		c5.9-0.7,8.4-0.9,10.8-0.9c0.6,0,1.1,0.5,1.1,1.1c0,4.5,0,8.4-0.1,13.1h-1.6c-2.3,0-11.7,0-22-1.7h0c0,1.4,2.9,5.7,4.9,5.7h0.1
		c7.7-0.9,14.2-0.9,16.5-0.9h1.7c0.1,2,0.3,4.2,0.3,6.7c0,2.1,0.1,6.7,0.1,12c0,6.5-0.1,14-0.2,19.4c0,1-1.2,1.4-1.8,0.7
		c-3.3-3.6-5.6-7.7-7.2-12c-0.1-0.2-0.1-0.4,0-0.7c0.5-1.5,0.8-3.1,1.3-4.8c1.2-4.3,1.3-3.5,3.4-4.2c1.3-0.4,2.1-1.1,2.1-1.7
		c0-2.4-9.5-4.6-10.9-4.6c-0.1,0-0.5,0-0.5,0.9c0,19.8-12,39.9-16.7,44.7c-1.2,1.2-2,2.4-2,2.9c0,0.1,0,0.1,0.3,0.1
		c0.1,0,12.6-5.3,20.8-26.8c0.3-0.9,1.6-0.9,1.9,0c10.4,24.4,33,27.9,56.1,27.9c15.5,0,30.6-1.7,31.5-1.8c1.3-0.3,2-1.1,2.5-2.1
		c1.7-3.7,10.2-9.3,10.2-10.3C126.9,100.4,126.8,100.3,126.5,100.3z"/>
	<path class="st0" d="M91.7,71.6c-7,11.8-17.8,21.5-30.7,25.5c-2.2,0.6-3.4,1.4-3.4,1.8c0,0.1,0.3,0.3,1,0.3c2.9,0,22.4-2.9,36.6-21
		c0,0,3.4-4.9,3.4-4.9c2.8-4.6,5.2-9.6,7.1-15.3c0.4-1.1,0.8-1.8,2.3-1.9c2.1-0.3,3.1-1.1,3-1.9c-0.2-2-10.7-6.1-11.2-6.1
		c-0.5,0-0.5,0.4-0.4,0.9c0.4,5.7-3,13.8-4.3,16.6C95,65.3,91.6,71.6,91.7,71.6z"/>
	<path class="st0" d="M93.9,19.5c2.4,2,5,4.4,6.4,6.8c1,1.7,2.2,2.3,3.4,2.3c1.8,0,3.5-1.8,3.5-3.9c0-4.5-5.8-6.3-10.8-6.3
		c-2.4,0-3.3,0.4-3.3,0.4C93.2,18.9,93.4,19.1,93.9,19.5z"/>
</g>
</svg>
