<?xml version="1.0" encoding="utf-8"?>
<!-- Generator: Adobe Illustrator 25.2.0, SVG Export Plug-In . SVG Version: 6.00 Build 0)  -->
<svg version="1.1" id="レイヤー_1" xmlns="http://www.w3.org/2000/svg" xmlns:xlink="http://www.w3.org/1999/xlink" x="0px"
	 y="0px" viewBox="0 0 130.5 125" style="enable-background:new 0 0 130.5 125;" xml:space="preserve">
<style type="text/css">
	.st0{fill:#FFFFFF;}
</style>
<path class="st0" d="M387.6,57.8c0,2.8-0.1,5.7-0.1,8.6c0,16.3,0.4,32.1,0.6,34.2c0.4,12.9-3.9,13.3-4.8,13.3c-3,0-6-4.6-6-12.1
	c0-2,0.1-3.9,0.6-6.2c2.1-9.7,2.8-14.2,2.8-46.6c0-27.9-1.8-33-6.3-33.1c-1.8-0.1-2.8-0.8-2.8-1.6c0-2.4,4-3.2,4.2-3.2
	c1.8,0,14.6,4,14.6,12.3c0,2.7-1.3,5.8-1.9,10.9c-0.3,2.7-0.3,2.8-0.5,6.8c-0.1,2.6-1.1,11.2,5.7,11.3c8.4,0,25.1,1.2,25.1,10.6
	c0,2.8-2.1,5.2-5.1,5.2c-1.8,0-3.7-0.7-6-2.5c-4.9-4-16.1-11.2-18.7-10.8C387.9,55.1,387.6,56.7,387.6,57.8z"/>
<path class="st0" d="M-61.1,56.8c0,3.4-0.1,6.9-0.1,10.5c0,19.9,0.5,39,0.7,41.5c0.5,15.7-4.7,16.2-5.8,16.2
	c-3.6,0-7.3-5.7-7.3-14.7c0-2.4,0.2-4.7,0.7-7.5c2.5-11.8,3.5-17.3,3.5-56.6c0-33.9-2.2-40.1-7.6-40.3c-2.2-0.2-3.5-0.9-3.5-2
	c0-2.9,4.9-3.8,5.1-3.8c2.2,0,17.8,4.9,17.8,15c0,3.3-1.6,7.1-2.4,13.3c-0.3,3.3-0.4,3.4-0.6,8.3c-0.1,3.1-1.3,13.6,7,13.8
	c10.2,0,30.5,1.5,30.5,12.9c0,3.4-2.5,6.4-6.2,6.4c-2.2,0-4.5-0.9-7.3-3.1c-6-4.9-19.6-13.6-22.7-13.1C-60.7,53.6-61,55.4-61.1,56.8
	z"/>
<path class="st0" d="M94,93.2c0,4.1-2.6,7.1-5.9,7.1c-2.6,0-5.3-1.6-8-5.1c-9.8-13.5-22.3-22-36-27.9c-2.9-1.4-4.5-2.1-4.5-2.7
	c0-0.2,0.4-0.4,1.4-0.4c1.9,0,17.3,1.5,30.5,7.6c0.9,0.4,2,0.4,2.8-0.2c6.2-3.8,25.7-16.6,27.2-27.1c0.2-1.3,0.7-4.6-1.2-6.7
	C97.9,35,93,35.7,90.6,36c-34.8,5.1-54.1,11.9-54.1,11.9c-4.1,1.4-6.8,2.6-11,2.6c-4.9,0-23.9-6.3-23.9-15.1c0-1.6,1-2.4,2.1-2.4
	c1.2,0,2.9,0.8,4.3,2c2.5,2,10,3,16.1,3c1.8,0,3.5,0,4.9-0.2c22.5-3.1,39.2-5.9,63.3-8.2c8.2-0.6,9-4.7,13.3-4.7
	c5.3,0,23.3,8.1,23.3,14.1c0,4.1-8,5.7-11.8,8.8c-8.5,7.1-24,17.5-35.5,24.3c-1.9,1.1-2,3.9-0.1,5.1C86.7,80.4,94,86.3,94,93.2z"/>
</svg>
