<svg width="18" height="18" viewBox="0 0 18 18" fill="none" xmlns="http://www.w3.org/2000/svg">
<path d="M12.142 4.05478C12.4966 4.05446 12.8478 4.12851 13.1748 4.27258C13.5019 4.41664 13.7983 4.62783 14.0466 4.89376C14.5583 5.4393 14.8451 6.17433 14.8451 6.94008C14.8451 7.70583 14.5583 8.44086 14.0466 8.9864L9.00001 14.3529L3.9534 8.9864C3.44172 8.44086 3.1549 7.70583 3.1549 6.94008C3.1549 6.17433 3.44172 5.4393 3.9534 4.89376C4.20188 4.62803 4.49829 4.41695 4.82531 4.27286C5.15234 4.12877 5.50342 4.05456 5.85806 4.05456C6.2127 4.05456 6.56378 4.12877 6.8908 4.27286C7.21783 4.41695 7.51423 4.62803 7.76271 4.89376L9.00001 6.22387L10.2324 4.904C10.48 4.6349 10.7767 4.42099 11.1048 4.27508C11.4329 4.12917 11.7857 4.05424 12.142 4.05478ZM12.142 3.03162C11.6576 3.03119 11.178 3.13232 10.7313 3.3291C10.2846 3.52588 9.87985 3.81433 9.54072 4.17755L9.00001 4.75052L8.4593 4.17755C8.11975 3.81499 7.71488 3.52704 7.26828 3.33048C6.82168 3.13392 6.34229 3.03269 5.85806 3.03269C5.37383 3.03269 4.89444 3.13392 4.44784 3.33048C4.00124 3.52704 3.59637 3.81499 3.25682 4.17755C2.56602 4.91608 2.17896 5.90994 2.17896 6.9452C2.17896 7.98045 2.56602 8.97431 3.25682 9.71284L9.00001 15.8211L14.7432 9.71284C15.434 8.97431 15.8211 7.98045 15.8211 6.9452C15.8211 5.90994 15.434 4.91608 14.7432 4.17755C14.4037 3.8148 13.9989 3.52664 13.5523 3.3299C13.1057 3.13316 12.6263 3.03176 12.142 3.03162Z" fill="black"/>
</svg>
