<svg width="24" height="24" viewBox="0 0 24 24" fill="none" xmlns="http://www.w3.org/2000/svg">
<path d="M12.2475 8.00769C11.1233 8.00769 10.0452 8.45426 9.25027 9.24917C8.45536 10.0441 8.00879 11.1222 8.00879 12.2464C8.00879 13.3705 8.45536 14.4486 9.25027 15.2435C10.0452 16.0385 11.1233 16.485 12.2475 16.485C13.3716 16.485 14.4497 16.0385 15.2446 15.2435C16.0396 14.4486 16.4861 13.3705 16.4861 12.2464C16.4861 11.1222 16.0396 10.0441 15.2446 9.24917C14.4497 8.45426 13.3716 8.00769 12.2475 8.00769ZM12.2475 14.9991C11.5171 14.9991 10.8167 14.709 10.3003 14.1926C9.78391 13.6762 9.49379 12.9758 9.49379 12.2454C9.49379 11.5151 9.78391 10.8147 10.3003 10.2983C10.8167 9.78189 11.5171 9.49177 12.2475 9.49177C12.9778 9.49177 13.6782 9.78189 14.1946 10.2983C14.711 10.8147 15.0011 11.5151 15.0011 12.2454C15.0011 12.9758 14.711 13.6762 14.1946 14.1926C13.6782 14.709 12.9778 14.9991 12.2475 14.9991Z" fill="white"/>
<path d="M16.6537 8.84001C17.1994 8.84001 17.6419 8.39759 17.6419 7.85184C17.6419 7.30609 17.1994 6.86368 16.6537 6.86368C16.1079 6.86368 15.6655 7.30609 15.6655 7.85184C15.6655 8.39759 16.1079 8.84001 16.6537 8.84001Z" fill="white"/>
<path d="M20.0701 6.84717C19.8579 6.29917 19.5336 5.80151 19.118 5.38605C18.7024 4.9706 18.2046 4.6465 17.6565 4.4345C17.0151 4.19374 16.3376 4.06356 15.6527 4.0495C14.7699 4.011 14.4903 4 12.2518 4C10.0133 4 9.72642 4 8.851 4.0495C8.16661 4.06284 7.48953 4.19305 6.849 4.4345C6.30078 4.64625 5.80287 4.97026 5.38722 5.38575C4.97158 5.80124 4.64738 6.29902 4.43542 6.84717C4.19461 7.48848 4.06473 8.1661 4.05133 8.851C4.01192 9.73283 4 10.0124 4 12.2518C4 14.4903 4 14.7754 4.05133 15.6527C4.06508 16.3383 4.19433 17.0148 4.43542 17.6574C4.64797 18.2054 4.97249 18.7029 5.38823 19.1184C5.80398 19.5338 6.30181 19.8579 6.84992 20.0701C7.48923 20.3205 8.16659 20.46 8.85283 20.4826C9.73558 20.5211 10.0152 20.533 12.2537 20.533C14.4922 20.533 14.7791 20.533 15.6545 20.4826C16.3393 20.4687 17.0169 20.3388 17.6583 20.0985C18.2063 19.886 18.7039 19.5616 19.1195 19.1461C19.535 18.7305 19.8594 18.2329 20.0719 17.6849C20.313 17.0432 20.4423 16.3667 20.456 15.6811C20.4954 14.7992 20.5073 14.5197 20.5073 12.2802C20.5073 10.0408 20.5073 9.75667 20.456 8.87942C20.4453 8.18483 20.3148 7.49731 20.0701 6.84717ZM18.9536 15.5848C18.9477 16.1131 18.8512 16.6365 18.6685 17.1322C18.5308 17.4886 18.3201 17.8123 18.0498 18.0825C17.7795 18.3526 17.4557 18.5631 17.0992 18.7006C16.609 18.8825 16.0912 18.9789 15.5683 18.9857C14.6975 19.026 14.4518 19.0361 12.2188 19.0361C9.984 19.0361 9.75575 19.0361 8.86842 18.9857C8.34585 18.9793 7.8283 18.8828 7.3385 18.7006C6.98071 18.564 6.65559 18.3538 6.38415 18.0836C6.11271 17.8135 5.90102 17.4893 5.76275 17.1322C5.58258 16.6418 5.4862 16.1246 5.47767 15.6022C5.43825 14.7314 5.42908 14.4857 5.42908 12.2527C5.42908 10.0188 5.42908 9.79058 5.47767 8.90233C5.48359 8.37435 5.58002 7.8513 5.76275 7.35592C6.04233 6.63267 6.61525 6.06342 7.3385 5.78658C7.82854 5.60521 8.34594 5.5088 8.86842 5.5015C9.74017 5.46208 9.98492 5.45108 12.2188 5.45108C14.4528 5.45108 14.6819 5.45108 15.5683 5.5015C16.0912 5.50779 16.6091 5.60423 17.0992 5.78658C17.4557 5.92433 17.7795 6.1351 18.0497 6.40536C18.32 6.67562 18.5308 6.9994 18.6685 7.35592C18.8487 7.84629 18.945 8.36348 18.9536 8.88583C18.993 9.75758 19.0031 10.0023 19.0031 12.2362C19.0031 14.4692 19.0031 14.7094 18.9637 15.5857H18.9536V15.5848Z" fill="white"/>
</svg>
