<svg width="43" height="58" viewBox="0 0 43 58" fill="none" xmlns="http://www.w3.org/2000/svg">
<g clip-path="url(#clip0)">
<path d="M30.8731 6.45357C36.8406 6.6044 38.5703 5.85511 39.4672 6.55713C40.3641 7.25707 40.1685 7.74709 40.5017 9.62239C40.8348 11.497 41.8855 13.1193 41.0769 14.5365C40.2683 15.9538 37.3032 17.7311 36.8176 18.0647C36.3328 18.399 36.5877 18.6638 37.0321 18.7479C37.4772 18.8307 41.2603 19.7037 42.108 20.4147C42.9564 21.1265 42.2928 21.6026 42.1822 24.0666C42.0716 26.5306 42.4863 27.0422 41.9401 27.918C41.3939 28.7924 40.1422 28.2655 36.4245 28.5491C32.7067 28.8341 28.5446 30.5002 26.2329 34.3161C23.3419 39.0877 23.6251 45.6978 27.8412 51.7637C28.7381 53.0544 29.2486 53.3721 28.2694 53.4763C27.2909 53.5827 26.1317 53.5625 25.4519 53.5472C24.7715 53.5326 24.6683 53.9087 24.6919 54.5613C24.7162 55.214 24.7236 55.8104 24.7263 56.7675C24.729 57.7232 24.6009 58.2473 24.0452 57.8845C23.0532 57.236 16.3184 50.4764 16.3454 40.2311C16.3676 31.9529 20.1953 28.4546 21.1981 27.0422C21.6782 26.3638 21.4368 25.9954 20.7489 25.944C20.0597 25.8939 17.133 25.9996 15.9603 26.4583C14.7876 26.9178 9.28682 29.2935 5.04037 30.0845C1.65035 30.717 0.833697 30.1686 0.348156 28.8765C-0.0841097 27.7241 0.691406 26.2317 0.353551 24.9C0.0163702 23.5668 -0.214936 22.8746 0.30702 21.9515C1.44804 19.9386 6.78359 18.8376 10.438 18.3608C14.093 17.884 18.0643 17.9709 20.5453 17.4961C23.0256 17.0221 28.3719 14.148 28.9121 13.8699C29.4529 13.5919 29.374 13.2645 28.7516 13.2103C16.6879 12.1566 10.3577 7.77837 9.40281 7.25707C8.44859 6.73716 8.97594 6.22837 9.46957 6.05182C9.96253 5.87666 11.7799 5.76823 12.9709 5.31435C13.8523 4.97933 13.5603 4.31971 13.4888 3.82829C13.3579 2.93374 13.126 1.56376 12.9695 0.820037C12.8131 0.0742289 13.0794 -0.32335 13.9999 0.330014C18.705 3.6719 22.888 6.25408 30.8731 6.45357ZM35.4979 12.3227C37.8083 12.1239 39.4213 12.5535 39.7417 12.6779C40.0613 12.803 40.3843 12.8586 40.474 12.6988C40.5624 12.5382 40.6487 12.3116 40.3877 11.456C40.0499 10.3501 39.8246 9.91918 39.6958 8.28785C39.5502 6.43758 37.5041 6.95193 34.8694 6.99294C32.2347 7.03325 22.4585 8.07725 14.4855 1.36011C14.0707 1.01118 13.6837 1.21206 13.768 1.61242C13.8523 2.01416 14.0566 3.5461 14.1672 4.21267C14.2778 4.87785 14.3304 5.35814 13.8273 5.68135C13.0154 6.20126 11.0402 6.32637 10.6275 6.47372C9.98141 6.70379 10.2087 6.91787 10.5802 7.14169C19.3807 12.4388 28.0536 12.9629 35.4979 12.3227ZM24.1302 17.6643C24.6184 17.6699 24.7769 17.7637 28.3638 17.909C31.9521 18.0529 34.16 18.2468 35.504 17.8895C36.8487 17.5316 39.0316 15.8856 39.7349 15.0933C40.4369 14.3016 40.1173 13.4411 38.8009 13.2006C37.4853 12.9615 34.7656 13.1137 32.7276 13.3813C31.9312 13.4856 31.0019 13.6649 30.1988 13.9992C29.3956 14.3343 24.8767 16.6273 23.8011 17.1931C23.1692 17.526 23.6426 17.6574 24.1302 17.6643ZM1.05758 25.0668C1.24303 26.286 1.01173 26.5723 0.930805 27.3223C0.849881 28.073 1.0967 28.4024 1.77983 28.0306C6.14767 25.6548 15.3959 25.3101 21.0969 25.1238C26.798 24.9382 32.6885 25.1933 36.3442 25.6249C40.002 26.0566 40.7566 26.6245 41.2286 26.3812C41.7 26.1379 41.4168 25.3928 41.5571 23.6092C41.6973 21.825 42.3467 21.4177 41.0877 20.5815C39.9359 19.8163 33.9543 18.8995 28.0941 18.5783C22.2346 18.2551 13.3714 18.456 8.27528 19.3304C3.1798 20.2055 1.21876 21.433 0.808745 22.5069C0.442567 23.4681 0.872135 23.8484 1.05758 25.0668ZM7.84504 28.7124C9.82092 28.2155 14.1146 26.8073 14.0734 26.3965C14.033 25.985 10.0165 26.5306 7.60429 26.924C5.19142 27.3195 1.30642 28.4163 1.77106 29.2754C2.27346 30.2068 5.86713 29.2087 7.84504 28.7124ZM17.0265 40.4007C16.9772 48.6818 22.5637 55.5073 23.3999 56.283C23.9184 56.7647 24.0655 56.6806 24.0574 56.3129C24.0493 55.9445 24.0769 54.1443 24.0965 53.6216C24.116 53.1003 24.2887 52.8709 24.961 52.889C25.634 52.9078 26.7514 52.9258 27.2228 52.9147C27.6949 52.9036 27.7333 52.7639 27.2896 52.1912C24.2233 48.239 21.6546 40.9276 25.5019 34.273C29.3491 27.6191 37.0321 27.7088 38.4071 27.7088C39.7828 27.7088 40.3904 27.797 40.4214 27.5364C40.4538 27.2743 40.3607 27.0193 37.8413 26.5007C35.3219 25.9808 26.8701 25.5353 25.021 25.9113C23.6008 26.1991 22.6048 26.7829 21.9169 27.5364C20.0672 29.5632 17.0696 33.172 17.0265 40.4007Z" fill="white"/>
</g>
<defs>
<clipPath id="clip0">
<rect width="42.5333" height="58" fill="white"/>
</clipPath>
</defs>
</svg>
