<svg width="173" height="39" viewBox="0 0 173 39" fill="none" xmlns="http://www.w3.org/2000/svg">
<path d="M140.754 28.2713C140.754 29.29 140.123 30.017 139.301 30.017C138.67 30.017 137.992 29.6268 137.316 28.7519C134.895 25.4044 131.797 23.3178 128.41 21.8617C127.682 21.5249 127.295 21.3318 127.295 21.184C127.295 21.1347 127.391 21.0875 127.635 21.0875C128.1 21.0875 131.902 21.4489 135.166 22.9563C135.393 23.057 135.652 23.0529 135.863 22.9173C137.389 21.9664 142.203 18.8099 142.588 16.2263C142.635 15.8977 142.756 15.0988 142.295 14.569C141.703 13.883 140.486 14.0473 139.891 14.1356C131.281 15.4028 126.523 17.0642 126.523 17.0642C125.516 17.4175 124.838 17.6947 123.809 17.6947C122.6 17.6947 117.906 16.138 117.906 13.9549C117.906 13.5709 118.146 13.3737 118.437 13.3737C118.725 13.3737 119.162 13.5709 119.502 13.8584C120.131 14.3451 121.971 14.5895 123.469 14.5895C123.906 14.5895 124.342 14.5895 124.68 14.5402C130.248 13.7639 134.363 13.0821 140.318 12.5029C142.35 12.3551 142.545 11.3364 143.611 11.3364C144.916 11.3364 149.371 13.3265 149.371 14.8298C149.371 15.8484 147.385 16.2386 146.465 17.0129C144.377 18.7647 140.525 21.3442 137.684 23.0282C137.211 23.3055 137.201 23.9873 137.662 24.281C138.945 25.1025 140.754 26.5544 140.754 28.2713Z" fill="black"/>
<path d="M162.096 18.1547C162.084 19.0686 162.057 19.9949 162.057 20.9416C162.057 26.2299 162.203 31.3231 162.252 32.005C162.396 36.1761 160.992 36.3219 160.703 36.3219C159.736 36.3219 158.766 34.8165 158.766 32.3952C158.766 31.7606 158.814 31.1301 158.959 30.401C159.637 27.2527 159.879 25.7966 159.879 15.3144C159.879 6.29043 159.299 4.6413 157.846 4.59201C157.266 4.54478 156.926 4.34762 156.926 4.0601C156.926 3.28175 158.234 3.03735 158.283 3.03735C158.863 3.03735 163.025 4.34762 163.025 7.0195C163.025 7.89028 162.59 8.90892 162.396 10.558C162.309 11.4432 162.291 11.4678 162.236 12.7555C162.207 13.5852 161.881 16.3865 164.092 16.4296C166.803 16.4296 172.223 16.8198 172.223 19.8757C172.223 20.7938 171.545 21.5721 170.58 21.5721C169.996 21.5721 169.369 21.3318 168.641 20.7465C167.043 19.4383 163.418 17.1279 162.59 17.2531C162.201 17.3004 162.105 17.8056 162.096 18.1547Z" fill="black"/>
<path d="M100.641 18.1547C100.627 19.0686 100.6 19.9949 100.6 20.9416C100.6 26.2299 100.748 31.3231 100.795 32.005C100.94 36.1761 99.5368 36.3219 99.2458 36.3219C98.2806 36.3219 97.3093 34.8165 97.3093 32.3952C97.3093 31.7606 97.3585 31.1301 97.504 30.401C98.1823 27.2527 98.424 25.7966 98.424 15.3144C98.424 6.29043 97.8441 4.6413 96.3913 4.59201C95.8093 4.54478 95.4712 4.34762 95.4712 4.0601C95.4712 3.28175 96.7765 3.03735 96.8277 3.03735C97.4077 3.03735 101.57 4.34762 101.57 7.0195C101.57 7.89028 101.133 8.90892 100.94 10.558C100.854 11.4432 100.834 11.4678 100.781 12.7555C100.748 13.5852 100.426 16.3865 102.635 16.4296C105.346 16.4296 110.766 16.8198 110.766 19.8757C110.766 20.7938 110.09 21.5721 109.123 21.5721C108.541 21.5721 107.912 21.3318 107.184 20.7465C105.588 19.4383 101.963 17.1279 101.133 17.2531C100.746 17.3004 100.645 17.8056 100.641 18.1547Z" fill="black"/>
<path d="M40.2155 30.3291C40.1315 30.3291 39.9614 30.3722 39.7093 30.4544C35.2852 31.7647 28.7504 32.4834 23.652 32.4834C19.9246 32.4834 16.318 32.1179 13.1951 30.3004C13.0947 30.2408 13.0311 30.1361 13.0291 30.021C13.0229 29.1667 12.9881 27.8934 12.9881 26.3983C12.9881 24.9463 13.025 23.3054 13.0291 21.7939C13.1643 21.6645 13.2361 21.5885 13.3672 21.4571H18.1315C18.6787 21.4571 18.8057 21.2476 18.8057 20.995C18.8057 20.0646 16.5291 18.3765 16.234 18.3765C15.7688 18.3765 14.9697 19.7278 14.7176 20.153C14.6336 20.3604 14.5496 20.5308 14.3365 20.5308H13.3672C13.2402 20.3974 13.1623 20.3214 13.0311 20.1899C13.0332 16.4624 13.0885 16.2612 13.6192 16.0969C13.8733 16.0086 14.0844 15.797 14.0844 15.5876C14.0844 15.5034 14.0844 15.4602 14.0434 15.4192H18.5946C19.1828 15.4192 19.3959 15.1665 19.3959 14.9139C19.3959 14.1931 17.7934 12.7555 16.7811 12.3756C16.7401 12.3756 16.6561 12.3345 16.5701 12.3345C16.402 12.3345 16.275 12.3756 16.15 12.4639C15.8119 12.8438 15.3078 13.3901 14.8856 14.0678C14.7586 14.2773 14.5065 14.4046 14.3815 14.4046H13.4123C13.2791 14.2732 13.2033 14.1992 13.0721 14.0637V10.1411L13.4123 9.8002H17.3733C17.9635 9.8002 18.1315 9.54759 18.1315 9.25391C18.1315 9.12658 18.0885 9.0013 18.0475 8.91299C17.4983 7.85944 16.066 6.71552 15.4758 6.71552C14.9697 6.71552 14.1274 8.15107 13.9594 8.45296C13.8733 8.66039 13.5803 8.78977 13.4512 8.78977H13.0721C13.1992 3.93069 13.1992 3.63495 13.7483 3.37824C14.2975 3.12974 14.6336 2.74775 14.6336 2.45201C14.6336 1.48061 10.8385 1.1438 10.6295 1.1438C10.5025 1.1438 10.4594 1.1438 10.4594 1.26908C10.4594 1.3122 10.4594 1.35738 10.5025 1.43748C10.9225 3.08456 10.9676 6.33764 10.9676 7.43432V8.44885C10.9676 8.63574 10.8119 8.78977 10.6254 8.78566C9.77705 8.76923 8.26885 8.68503 5.49222 8.28456H5.48812C5.49222 8.70968 6.4164 10.0959 7.08853 10.0959H7.12951C9.0332 9.87618 9.85696 9.81663 10.6193 9.8043C10.8098 9.8002 10.9676 9.95628 10.9676 10.1493C10.9656 11.6054 10.9635 12.8808 10.9225 14.4046H10.4184C9.66024 14.4046 6.62337 14.4046 3.29551 13.8563H3.29346C3.29551 14.3245 4.22378 15.7128 4.89591 15.7128H4.93894C7.42459 15.4192 9.53319 15.4192 10.2893 15.4192H10.8385C10.8836 16.0538 10.9225 16.7705 10.9225 17.5735C10.9225 18.2471 10.9676 19.7278 10.9676 21.4571C10.9676 23.5539 10.9348 25.9937 10.8979 27.7373C10.8938 28.0474 10.5107 28.1871 10.3037 27.955C9.24631 26.7782 8.47582 25.4639 7.96967 24.0591C7.94508 23.9872 7.94508 23.9154 7.96558 23.8476C8.11721 23.365 8.23812 22.8515 8.3959 22.3073C8.77295 20.9108 8.81598 21.1634 9.49016 20.956C9.91229 20.8266 10.1664 20.615 10.1664 20.4056C10.1664 19.6436 7.08853 18.9248 6.62337 18.9248C6.58238 18.9248 6.45533 18.9248 6.45533 19.2226C6.45533 25.6446 2.58034 32.1466 1.06191 33.7075C0.682809 34.0874 0.428711 34.4694 0.428711 34.6378C0.428711 34.6768 0.428711 34.6768 0.512727 34.6768C0.55576 34.6768 4.58239 32.9517 7.25246 25.9937C7.36107 25.7124 7.75656 25.7124 7.87541 25.9855C11.2402 33.8718 18.5496 35.0177 26.0557 35.0177C31.07 35.0177 35.9573 34.4694 36.2524 34.4283C36.6725 34.34 36.8856 34.0874 37.0536 33.7506C37.6028 32.5677 40.3425 30.7501 40.3425 30.4133C40.3425 30.3722 40.2995 30.3291 40.2155 30.3291Z" fill="black"/>
<path d="M37.4736 26.8666C37.3896 26.7783 37.3896 26.5298 37.3896 26.1889C37.3896 24.8376 37.7707 22.1328 37.7707 21.1635C37.7707 20.954 37.7707 20.4057 37.4326 21.2867C36.2953 24.1188 35.2851 25.6426 34.2728 25.6426C33.8076 25.6426 31.9142 24.7534 30.2687 21.6728V21.6646C30.2707 21.6646 29.2564 19.0933 29.2564 19.0933C28.4531 16.5549 28.0679 13.7373 27.8527 11.1393C27.8363 10.938 27.9941 10.7696 28.1929 10.7696H34.6949C35.4101 10.7696 35.5781 10.5622 35.5781 10.3076C35.5781 9.46142 32.9224 7.22493 32.2072 7.22493C32.0392 7.22493 31.9121 7.26806 31.8261 7.34815C31.1539 7.98686 30.7728 8.74468 30.3527 9.41829C30.1826 9.62983 29.9306 9.79823 29.6355 9.79823H28.1027C27.9265 9.79823 27.7728 9.65447 27.7646 9.47785C27.656 7.3728 27.656 5.51213 27.656 4.22856C27.656 3.12777 27.697 3.16885 28.4142 2.87106C28.8343 2.70265 29.0884 2.45005 29.0884 2.23851C29.0884 1.43551 25.4203 0.638672 25.0433 0.638672C24.8753 0.638672 24.7892 0.718767 24.7892 0.846097C24.7892 0.930299 24.7892 0.971373 24.8302 1.05558C25.2523 2.32272 25.4203 4.77279 25.4634 5.5758C25.5433 6.59444 25.5822 7.93346 25.6888 9.43472C25.7031 9.63393 25.5535 9.79823 25.3527 9.79823H23.7769L23.5658 9.62983C22.7236 9.04041 20.49 8.02588 20.0679 8.02588C20.0269 8.02588 19.9839 8.07106 19.9839 8.15115C19.9839 8.19839 19.9839 8.28259 20.0269 8.40787C20.363 9.96663 20.447 12.6714 20.447 18.7565V22.4019C20.447 22.5456 20.3548 22.675 20.2216 22.7222C19.4839 22.9872 18.9593 23.1453 18.5802 23.2131C18.1109 23.2973 17.7052 22.8989 17.5167 22.8989C17.3896 22.8989 17.3486 22.9399 17.3486 23.0241C17.3486 23.1925 19.404 25.5666 19.949 25.5666C20.2031 25.5666 20.3671 25.2134 20.6642 25.045C21.6335 24.4925 27.2748 20.57 27.2748 20.0627C27.2748 20.0237 27.2339 19.9785 27.1498 19.9785C27.0228 19.9785 26.7687 20.0627 26.4326 20.2352C25.2544 20.7856 24.1089 21.2785 23.0494 21.6728C22.8302 21.757 22.5966 21.5845 22.5966 21.3463C22.6007 17.2594 22.6396 13.8748 22.6396 12.1662C22.6806 11.1516 22.7236 11.2399 23.1027 10.9832C23.2298 10.899 23.3568 10.8579 23.4388 10.7696H25.4941C25.6621 10.7696 25.8138 10.9072 25.8281 11.0756C26.1334 14.2199 26.7277 17.8899 27.992 21.1635C27.9675 21.2025 28.9408 23.3897 29.0023 23.3158H29.0043C31.8711 28.5548 35.7892 29.1894 36.2953 29.1894C37.3056 29.1894 37.8547 28.6 37.8547 27.8771C37.8547 27.5403 37.7277 27.2034 37.4736 26.8666Z" fill="black"/>
<path d="M29.2483 3.39474C30.0373 4.02934 30.8631 4.81797 31.3365 5.60454C31.65 6.16315 32.0434 6.35414 32.4389 6.35414C33.0291 6.35414 33.5803 5.76473 33.5803 5.09111C33.5803 3.63503 31.6889 3.0415 30.0742 3.0415C29.2893 3.0415 29.0127 3.15857 29.0127 3.15857C29.0127 3.19759 29.0906 3.27768 29.2483 3.39474Z" fill="black"/>
<path d="M68.9532 6.54724C69.2073 6.54724 69.4184 6.46714 69.6294 6.24945C69.9245 5.91264 70.1335 5.62101 70.3876 5.49163C70.4716 5.40743 70.5557 5.40742 70.6397 5.40742C70.7237 5.40742 70.8507 5.40743 70.9348 5.4485C71.4409 5.66003 73.8446 7.14076 73.8446 7.73017C73.8446 8.02796 73.5905 8.36477 72.6643 8.66051C72.072 8.87409 71.82 8.82891 71.3569 9.59084C70.0167 11.7062 68.5577 13.6675 67.0208 15.4316C66.9204 15.5446 66.9245 15.713 67.027 15.8177C70.6684 19.5267 76.6028 22.3464 85.4327 22.4306C85.8118 22.4306 85.9818 22.4758 85.9818 22.5559C85.9818 23.0201 80.7954 24.585 79.531 25.809C79.277 26.0205 79.1089 26.1458 78.8979 26.1458C78.3999 26.1458 70.8364 23.7984 65.7749 17.2409C65.6704 17.1033 65.4737 17.0889 65.3528 17.2122C56.7627 25.8439 46.6869 27.7991 45.2258 27.7991C45.0127 27.7991 44.8877 27.7498 44.8877 27.7107C44.8877 27.5423 45.3488 27.2877 46.2361 27.0351C52.3344 25.1066 59.0536 20.8185 64.0967 15.1071C64.1766 15.0147 64.1889 14.8812 64.1274 14.7785C63.1069 13.0246 62.3528 11.1434 61.9471 9.22322C61.8958 8.98089 61.5987 8.91311 61.4471 9.10205C53.941 18.5204 47.5803 21.5003 47.3324 21.5003C47.2463 21.5003 47.2053 21.4572 47.2053 21.4161C47.2053 21.2888 47.3754 21.0362 47.6274 20.8678C53.1479 16.5981 59.4696 8.87409 62.6725 3.04155C63.1356 2.19953 63.4327 1.31232 63.6417 0.252607C63.6868 0.0451817 63.7258 0 63.8098 0C63.9368 0 67.8139 1.26919 67.8139 2.28373C67.8139 2.57536 67.4368 2.87314 66.5085 3.04155C65.9184 3.12986 65.7483 3.20995 65.2421 3.93081C64.7237 4.66193 64.2299 5.391 63.7196 6.10158C63.5844 6.29052 63.7155 6.54724 63.9491 6.54724H68.9532ZM62.6315 7.56177L62.5475 7.6891C62.945 9.56825 63.7606 11.5645 65.0249 13.4539C65.1335 13.61 65.3651 13.6223 65.484 13.4744C67.0967 11.4536 69.1212 8.17583 69.1212 7.73017C69.1212 7.6049 69.0372 7.56177 68.8241 7.56177H62.6315Z" fill="black"/>
<path d="M28.4818 20.8555C26.2256 24.6692 22.7318 27.8278 18.5289 29.1032C17.8056 29.3065 17.4162 29.5509 17.4244 29.6762C17.4265 29.7152 17.5105 29.7604 17.7585 29.7604C18.699 29.7604 25.0187 28.8136 29.6211 22.9462C29.6252 22.9523 30.7338 21.3484 30.7297 21.3443C31.6437 19.8697 32.4244 18.2247 33.0228 16.3784C33.1601 16.0108 33.2687 15.8054 33.7564 15.7623C34.4469 15.6801 34.7543 15.3926 34.7359 15.1482C34.6846 14.4931 31.2728 13.1787 31.1088 13.1787C30.9449 13.1787 30.9531 13.3019 30.9654 13.4621C31.1027 15.3125 29.9859 17.9392 29.5617 18.8428C29.5556 18.8305 28.4797 20.8473 28.4818 20.8555Z" fill="black"/>
<path d="M62.6028 21.7366C62.363 22.8435 63.0454 24.3407 64.4696 24.4598C65.8958 24.5851 67.2565 23.9217 67.695 23.4042C68.2237 22.7881 69.6478 22.7224 70.0823 23.6855C70.5167 24.6487 70.4552 27.8217 67.6028 27.1358C65.0044 26.5094 62.6847 26.1972 61.4327 28.3783C60.2544 30.4279 62.7769 33.0648 64.1294 33.225C65.6806 33.414 66.4552 32.5432 68.5638 32.8513C70.6724 33.1634 71.6335 34.5641 71.2626 35.4307C71.1376 35.7716 70.7339 35.2788 70.113 35.7716C69.4942 36.2727 68.9368 36.7985 68.8118 37.3592C68.6888 37.9219 67.5228 38.5318 65.9901 38.0102C63.6007 37.2031 58.7155 33.6091 60.7196 28.3475C61.2606 26.9263 62.6048 25.996 63.6929 25.7269C63.9122 25.6674 64.0618 25.54 63.7462 25.3059C63.1642 24.8726 62.3774 23.8786 62.6028 21.7366Z" fill="black"/>
</svg>
